# xmcd
#
# Track frame offsets:
#	150
#	12985
#	27802
#	37854
#	50805
#	65614
#	78170
#	91033
#	113745
#	130825
#
# Disc length: 1928 seconds
#
# Revision: 1
# Processed by: cddbd v1.5.2PL0 Copyright (c) Steve Scherf et al.
# Submitted via: audiograbber 1.83.01
#
DISCID=7207860a
DTITLE=Mel McDaniel - Gentle to Your Senses
DYEAR=1978
DGENRE=Country
TTITLE0=Gentle on Your Senses Easy on Your Mind
TTITLE1=God Made Love
TTITLE2=Roll Your Own
TTITLE3=I'll Just Take It Out in Love
TTITLE4=TJ's Last Ride
TTITLE5=Soul of a Honky Tonk Woman
TTITLE6=Takin' My Dreams Out on You
TTITLE7=Plastic Girl
TTITLE8=Reachin' High for Rainbows
TTITLE9=Have a Dream on Me
EXTD=
EXTT0=
EXTT1=
EXTT2=
EXTT3=
EXTT4=
EXTT5=
EXTT6=
EXTT7=
EXTT8=
EXTT9=
PLAYORDER=
